PathFileType	4	(X/Y/Z)	Patient4_TMGait_0pt6_01_left_11.trc.trc
DataRate	CameraRate	NumFrames	NumMarkers	Units	OrigDataRate	OrigDataStartFrame	OrigNumFrames
84.848484848485	84.848484848485	4	33	mm	84.848484848485	18	       141
Frame#	Time	Sacral			L.Shoulder			Chest			R.Shoulder			Neck			R.ASIS			L.ASIS			R.Thigh.Superior			R.Thigh.Lateral			R.Thigh.Inferior			R.Patella			L.Thigh.Superior			L.Thigh.Lateral			L.Thigh.Inferior			L.Patella			L.Shank.Superior			L.Shank.Lateral			L.Shank.Inferior			R.Shank.Superior			R.Shank.Lateral			R.Shank.Inferior			R.Heel			R.Midfoot.Superior			R.Midfoot.Lateral			R.Toe			L.Heel			L.Midfoot.Lateral			L.Midfoot.Superior			L.Toe			L.Elbow			L.Wrist			R.Elbow			R.Wrist			
		X1	Y1	Z1	X2	Y2	Z2	X3	Y3	Z3	X4	Y4	Z4	X5	Y5	Z5	X6	Y6	Z6	X7	Y7	Z7	X8	Y8	Z8	X9	Y9	Z9	X10	Y10	Z10	X11	Y11	Z11	X12	Y12	Z12	X13	Y13	Z13	X14	Y14	Z14	X15	Y15	Z15	X16	Y16	Z16	X17	Y17	Z17	X18	Y18	Z18	X19	Y19	Z19	X20	Y20	Z20	X21	Y21	Z21	X22	Y22	Z22	X23	Y23	Z23	X24	Y24	Z24	X25	Y25	Z25	X26	Y26	Z26	X27	Y27	Z27	X28	Y28	Z28	X29	Y29	Z29	X30	Y30	Z30	X31	Y31	Z31	X32	Y32	Z32	X33	Y33	Z33	

18	13.560357142857	654.514215044975	1002.060885524592	520.441923565150	788.934855753861	1434.970964092917	324.706721637772	916.098168437810	1366.854962965296	467.626036615672	857.290796587426	1435.474153749824	652.234265211661	791.530292374909	1491.776387611965	480.665305339739	891.013789657795	937.191452590669	608.049429704440	847.384059099754	961.913766620383	336.278644901220	892.525491034693	724.481401611871	575.935412918103	795.679913513606	627.690612084011	642.801875894996	850.147783959537	565.579134679697	556.587626709303	832.621911762109	480.479322558126	560.318467270338	928.057221944377	777.837785981798	371.328304947616	883.184202196825	648.655977053198	295.994559397102	982.362016469388	589.439365377753	363.601959019731	1011.925377921540	527.125737685525	359.948038386716	999.341596899822	455.314147893812	350.499774175173	942.673390306252	320.490177339386	300.957500378690	1034.393323519616	228.236258471263	360.226313018562	796.850246545921	394.730030702756	568.059006413562	718.689419151126	297.439735428273	631.750518766732	745.432965622599	200.891988224019	564.173514967038	596.279374233154	42.462968375613	534.392536595826	768.107667987583	95.757172138763	569.136246265095	679.461551274529	35.964693941496	608.443243688982	887.739829914837	43.524692224823	597.736261289384	961.176206379790	44.288311813956	403.491084629189	1036.290009972885	49.893539103876	324.644468147078	1101.591656794247	132.991121593406	342.184027762414	1237.152818935605	111.779064274726	320.093205044692	693.119810248406	1091.375582135697	221.070243068423	672.970852950035	833.547502848262	233.046498613705	999.368535988668	1121.185597582130	766.404374768852	1252.805025708121	1095.531440644484	727.261574546787	
19	13.572142857143	655.883344916885	1001.013216086726	519.591859760014	789.555133764283	1434.079826134941	323.896573554233	916.938405848258	1365.959716011747	466.599709783486	858.210898283121	1434.435609911200	651.297227923548	792.248979584733	1490.682115538090	479.863163951417	892.439660876348	936.065822556200	606.972949794619	848.545848940082	960.637527464562	335.084412450241	892.403521985638	723.054275013376	575.158281808184	794.688206847065	626.782073661220	642.045048161969	848.798694431124	564.138374712039	556.011490113080	830.411748960047	478.876170079590	559.668470873093	928.712664813704	776.027112516997	369.692648876954	881.553607341021	646.241215263137	296.061733167215	981.397583890507	587.131274760180	362.270122084708	1010.209705713614	524.761965269454	359.345368148383	997.808750958080	453.024656516227	350.325835663589	940.777424397760	317.865178871587	302.534057860897	1033.469373105005	226.194274136255	361.161881465078	793.682758317439	393.538564381361	567.504299115525	714.437122338001	297.298333489679	631.595604421219	739.765958278801	200.321450559651	564.007708660559	589.206979645165	42.602634471297	534.480900930895	761.105365279852	95.655886249508	569.197110286113	672.373405465396	35.959323270007	608.477451535729	880.708230269998	43.038873893613	597.819183119438	960.879109948569	43.300730650239	406.719717919820	1034.689294608605	48.067542818673	326.649740694510	1101.002696603854	130.322546518317	342.929587810369	1235.861635187042	107.753917529082	318.768011577771	689.730076896059	1091.954575765485	220.706689871114	666.699955694794	834.367961087426	233.182164373065	1000.940457748345	1120.498076176030	764.946735523457	1254.435144396092	1102.017310333672	724.905015093083	
20	13.583928571429	657.375095253098	999.872362836530	518.500428330874	790.250781198737	1433.078823760763	322.934665297466	917.824809516645	1365.020777179252	465.478934041172	859.070900927075	1433.313127332663	650.254520693096	792.965953263892	1489.498285365843	478.914444878546	893.931051034248	934.853821334603	605.885422100046	850.000670579410	959.282878741407	333.850318383616	892.430023866160	721.547373588387	574.438690090783	793.792400383208	625.807878745044	641.230138674703	847.691603005610	562.609855132589	555.453333813690	828.442375326344	477.124087697364	559.004457937195	929.812652356402	774.252867186889	368.020129587181	880.306276491448	643.768552495415	296.226993807151	980.874020482774	584.853803062067	361.013367727089	1008.755158751854	522.150392730652	358.944515371496	996.277235929968	450.354294646361	350.355912937729	938.260821578214	315.212686021194	304.068736191729	1031.245274132050	223.592885658492	362.211675669990	790.682946920940	392.251663636145	566.919005962556	710.275243543436	297.121183946568	631.391315885837	734.153307534042	199.715193567144	563.821261142876	582.137669581903	42.752609745554	534.566088061516	754.104095653618	95.566478457286	569.250750705156	665.292402959608	35.959813601793	608.509175933328	873.673212450464	42.552249410270	597.915554927756	958.145451836814	42.296709075466	409.703226040386	1030.703072200473	46.038939234696	328.443564793067	1098.562084967821	126.836252135783	343.833743106696	1232.549784562890	102.046148874873	317.540257083929	686.810048959835	1092.311703920880	220.284157612670	661.555653543231	834.909139569000	233.144791758025	1002.009880509223	1119.429057415670	763.426025197503	1255.358906930691	1107.388103104306	722.672281604797	
21	13.595714285714	658.978477168917	998.646012199407	517.168400848356	791.037576463259	1431.966732892240	321.811844203336	918.764121530938	1364.045736615464	464.268976601650	859.865986312412	1432.116785463818	649.106323388082	793.692081278515	1488.239600212971	477.806830791826	895.476356281197	933.559969884941	604.794586354896	851.743615506186	957.870396783873	332.599633788387	892.633715029336	719.971799679885	573.788381692667	793.027037879468	624.767827460411	640.346789184655	846.865432965004	561.001748608197	554.902484513100	826.761485080710	475.214143900240	558.317498660475	931.297702297878	772.467806773143	366.371994668846	879.484953589915	641.295423133099	296.418150512026	980.754302826735	582.615951449179	359.889951125506	1007.531594390707	519.348055290780	358.783675922842	994.800992617483	447.396075353007	350.574835845125	935.367511141505	312.564724806774	305.459187850973	1028.023205252579	220.549312390450	363.341797406893	787.876939949568	390.872896032328	566.293070137609	706.223307957122	296.920517532367	631.124422769072	728.610811097639	199.085205646192	563.607538041085	575.071497454541	42.947181300405	534.649560867207	747.116564323465	95.498460007246	569.298079755894	658.222626430157	35.982724436325	608.537877065109	866.640182083257	42.062253088066	598.027261792685	953.422485052777	41.289808152853	412.318764614303	1024.851229247795	43.918076803697	329.973416389533	1094.667476167579	122.728636808864	344.909191394645	1227.664613715385	95.024402057393	316.556746919702	684.421479481222	1092.411014933918	219.777971786943	657.561855535381	835.130179438974	232.925926960645	1002.565764183471	1117.975817520100	761.850090598281	1255.635165149033	1111.614315875133	720.571304313259	
